<?xml version="1.0" encoding="iso-8859-1"?>
<svg version="1.1"
	 xmlns="http://www.w3.org/2000/svg" xmlns:xlink="http://www.w3.org/1999/xlink" x="0px" y="0px" viewBox="0 0 250 250"
	 enable-background="new 0 0 250 250" xml:space="preserve">
<rect fill="#10B981" width="250" height="250"/>
<g>
	<path fill="#FFFFFF" d="M80.414,122.2c-5.012-4.717-15.476-11.055-24.172-14.739l7.665-10.17
		c8.548,3.39,19.308,8.991,24.614,13.707L80.414,122.2z M59.485,182.924c5.895-11.201,14.15-29.183,20.34-45.396l11.055,7.664
		c-5.748,14.887-12.676,31.689-19.161,45.102L59.485,182.924z M86.604,83.583c-4.717-4.864-15.034-11.497-23.435-15.771l7.812-9.728
		c8.254,3.685,18.866,9.728,23.877,14.591L86.604,83.583z M125.958,92.426c1.916-4.569,3.538-9.433,4.864-14.739
		c-10.317,0.885-20.782,1.622-30.51,1.916c-0.442-3.39-1.916-8.696-3.538-11.939c27.267-1.032,58.956-4.274,76.348-9.58
		l10.612,10.612c-10.76,3.242-24.172,5.748-38.468,7.517c-1.327,5.748-2.948,11.201-4.864,16.213h49.523v12.528H163.1
		c7.369,10.318,18.718,19.603,30.658,24.32c-2.948,2.653-7.075,7.517-8.991,10.907c-14.739-6.928-28.004-20.341-36.11-35.227
		h-14.003c-8.844,16.508-21.519,28.742-38.322,37.291c-1.768-2.801-6.338-8.402-9.138-10.76
		c13.707-6.191,24.319-14.887,31.984-26.531h-27.12V92.426H125.958z M120.062,141.803c-3.538,12.675-8.991,26.825-18.866,35.669
		l-10.022-8.107c8.843-7.37,14.887-19.751,17.834-31.395L120.062,141.803z M127.284,123.083h12.529v54.683
		c0,6.486-1.032,10.022-5.454,12.234c-4.275,1.916-10.76,1.916-20.488,1.916c-0.442-3.538-1.916-8.696-3.537-12.234
		c6.485,0.295,12.528,0.295,14.444,0.148c1.916,0,2.505-0.589,2.505-2.211V123.083z M154.109,140.771
		c4.717,9.728,8.991,22.256,10.318,30.805l-10.907,4.127c-1.179-8.401-5.158-21.519-9.875-31.1L154.109,140.771z M172.533,136.054
		c8.844,10.907,17.54,25.646,20.93,35.816l-11.349,6.043c-3.39-10.022-11.792-25.351-20.193-36.553L172.533,136.054z"/>
</g>
</svg>
