<?xml version="1.0" encoding="iso-8859-1"?>
<!-- Generator: Adobe Illustrator 30.1.0, SVG Export Plug-In . SVG Version: 9.03 Build 0)  -->
<svg version="1.1" id="&#x30EC;&#x30A4;&#x30E4;&#x30FC;_1"
	 xmlns="http://www.w3.org/2000/svg" xmlns:xlink="http://www.w3.org/1999/xlink" x="0px" y="0px" viewBox="0 0 250 250"
	 enable-background="new 0 0 250 250" xml:space="preserve">
<path fill="#10B981" d="M198.125,245H51.875C25.987,245,5,224.013,5,198.125V51.875C5,25.987,25.987,5,51.875,5h146.25
	C224.013,5,245,25.987,245,51.875v146.25C245,224.013,224.013,245,198.125,245z"/>
<g>
	<path fill="#FFFFFF" d="M72.881,121.726c-5.858-5.513-18.091-12.923-28.257-17.23l8.96-11.888
		c9.993,3.963,22.57,10.51,28.773,16.023L72.881,121.726z M48.415,192.712c6.892-13.094,16.54-34.114,23.776-53.066l12.923,8.959
		c-6.72,17.402-14.818,37.043-22.399,52.723L48.415,192.712z M80.117,76.585c-5.513-5.686-17.574-13.439-27.395-18.435l9.132-11.371
		c9.648,4.307,22.054,11.371,27.912,17.057L80.117,76.585z M126.12,86.923c2.24-5.341,4.135-11.027,5.686-17.23
		c-12.06,1.034-24.293,1.896-35.665,2.24c-0.517-3.963-2.24-10.165-4.135-13.956c31.875-1.206,68.918-4.996,89.249-11.199
		l12.405,12.405c-12.577,3.79-28.256,6.72-44.968,8.787c-1.551,6.72-3.446,13.094-5.686,18.952h57.891v14.645h-31.358
		c8.615,12.061,21.881,22.916,35.838,28.429c-3.446,3.101-8.271,8.787-10.51,12.75c-17.229-8.098-32.736-23.777-42.212-41.179
		h-16.369c-10.338,19.298-25.155,33.599-44.797,43.591c-2.067-3.274-7.409-9.821-10.682-12.577
		c16.023-7.237,28.428-17.402,37.388-31.014H86.492V86.923H126.12z M119.228,144.642c-4.135,14.817-10.51,31.357-22.054,41.695
		l-11.716-9.476c10.337-8.615,17.402-23.088,20.848-36.699L119.228,144.642z M127.67,122.76h14.646v63.922
		c0,7.582-1.207,11.716-6.375,14.301c-4.997,2.24-12.578,2.24-23.949,2.24c-0.517-4.135-2.24-10.165-4.135-14.301
		c7.581,0.345,14.645,0.345,16.885,0.173c2.24,0,2.929-0.689,2.929-2.585V122.76z M159.028,143.436
		c5.513,11.372,10.51,26.017,12.061,36.009l-12.75,4.824c-1.378-9.82-6.03-25.155-11.543-36.354L159.028,143.436z M180.565,137.922
		c10.338,12.75,20.503,29.979,24.466,41.868l-13.267,7.064c-3.963-11.716-13.784-29.634-23.604-42.729L180.565,137.922z"/>
</g>
</svg>
